<svg xmlns="http://www.w3.org/2000/svg" viewBox="-1.65 -0.06 1.25 1.19"><g clip-path="url(#a)"><g clip-path="url(#b)"><path d="m-1.347.288.159.49h-.185L-1.554.22l.38-.277h.3l-.473.344z" fill="#e37f7c" fill-rule="evenodd"></path></g><g clip-path="url(#b)"><path d="m-1.29.464-.057-.176.473-.344.381.277.093.285-.474-.344-.416.302z" fill="#c84449" fill-rule="evenodd"></path></g><g clip-path="url(#b)"><path d="m-.874.162-.15.109.417.302-.18.557.241-.176L-.4.506-.874.162z" fill="#382d5e" fill-rule="evenodd"></path></g><g clip-path="url(#b)"><path d="m-.607.573-.15-.109-.159.49H-1.5l.267.176h.446l.181-.557z" fill="#c84449" fill-rule="evenodd"></path></g><g clip-path="url(#b)"><path d="m-1.647.506.093-.285.18.557h.515l-.057.176H-1.5l-.146-.448z" fill="#382d5e" fill-rule="evenodd"></path></g></g><defs><clipPath id="a"><path d="M-1.647-.056H-.4V1.13h-1.247z"></path></clipPath><clipPath id="b"><path d="M-1.647-.056H-.4V1.13h-1.247z"></path></clipPath></defs></svg>